<svg xmlns="http://www.w3.org/2000/svg" viewBox="0 0 400 240" shape-rendering="crispEdges"><rect x="0" y="0" width="400" height="240" fill="#0a2a33" /><rect x="0" y="0" width="28" height="28" fill="#12616f" /><rect x="30" y="0" width="28" height="28" fill="#0f4a58" /><rect x="60" y="0" width="28" height="28" fill="#12616f" /><rect x="90" y="0" width="28" height="28" fill="#0f4a58" /><rect x="120" y="0" width="28" height="28" fill="#12616f" /><rect x="150" y="0" width="28" height="28" fill="#0f4a58" /><rect x="180" y="0" width="28" height="28" fill="#12616f" /><rect x="210" y="0" width="28" height="28" fill="#0f4a58" /><rect x="240" y="0" width="28" height="28" fill="#12616f" /><rect x="270" y="0" width="28" height="28" fill="#0f4a58" /><rect x="300" y="0" width="28" height="28" fill="#12616f" /><rect x="330" y="0" width="28" height="28" fill="#0f4a58" /><rect x="360" y="0" width="28" height="28" fill="#12616f" /><rect x="390" y="0" width="28" height="28" fill="#0f4a58" /><rect x="0" y="30" width="28" height="28" fill="#0f4a58" /><rect x="30" y="30" width="28" height="28" fill="#12616f" /><rect x="60" y="30" width="28" height="28" fill="#0f4a58" /><rect x="90" y="30" width="28" height="28" fill="#12616f" /><rect x="120" y="30" width="28" height="28" fill="#0f4a58" /><rect x="150" y="30" width="28" height="28" fill="#12616f" /><rect x="180" y="30" width="28" height="28" fill="#0f4a58" /><rect x="210" y="30" width="28" height="28" fill="#12616f" /><rect x="240" y="30" width="28" height="28" fill="#0f4a58" /><rect x="270" y="30" width="28" height="28" fill="#12616f" /><rect x="300" y="30" width="28" height="28" fill="#0f4a58" /><rect x="330" y="30" width="28" height="28" fill="#12616f" /><rect x="360" y="30" width="28" height="28" fill="#0f4a58" /><rect x="390" y="30" width="28" height="28" fill="#12616f" /><rect x="0" y="60" width="28" height="28" fill="#12616f" /><rect x="30" y="60" width="28" height="28" fill="#0f4a58" /><rect x="60" y="60" width="28" height="28" fill="#12616f" /><rect x="90" y="60" width="28" height="28" fill="#0f4a58" /><rect x="120" y="60" width="28" height="28" fill="#12616f" /><rect x="150" y="60" width="28" height="28" fill="#0f4a58" /><rect x="180" y="60" width="28" height="28" fill="#12616f" /><rect x="210" y="60" width="28" height="28" fill="#0f4a58" /><rect x="240" y="60" width="28" height="28" fill="#12616f" /><rect x="270" y="60" width="28" height="28" fill="#0f4a58" /><rect x="300" y="60" width="28" height="28" fill="#12616f" /><rect x="330" y="60" width="28" height="28" fill="#0f4a58" /><rect x="360" y="60" width="28" height="28" fill="#12616f" /><rect x="390" y="60" width="28" height="28" fill="#0f4a58" /><rect x="0" y="90" width="28" height="28" fill="#0f4a58" /><rect x="30" y="90" width="28" height="28" fill="#12616f" /><rect x="60" y="90" width="28" height="28" fill="#0f4a58" /><rect x="90" y="90" width="28" height="28" fill="#12616f" /><rect x="120" y="90" width="28" height="28" fill="#0f4a58" /><rect x="150" y="90" width="28" height="28" fill="#12616f" /><rect x="180" y="90" width="28" height="28" fill="#0f4a58" /><rect x="210" y="90" width="28" height="28" fill="#12616f" /><rect x="240" y="90" width="28" height="28" fill="#0f4a58" /><rect x="270" y="90" width="28" height="28" fill="#12616f" /><rect x="300" y="90" width="28" height="28" fill="#0f4a58" /><rect x="330" y="90" width="28" height="28" fill="#12616f" /><rect x="360" y="90" width="28" height="28" fill="#0f4a58" /><rect x="390" y="90" width="28" height="28" fill="#12616f" /><rect x="0" y="120" width="28" height="28" fill="#12616f" /><rect x="30" y="120" width="28" height="28" fill="#0f4a58" /><rect x="60" y="120" width="28" height="28" fill="#12616f" /><rect x="90" y="120" width="28" height="28" fill="#0f4a58" /><rect x="120" y="120" width="28" height="28" fill="#12616f" /><rect x="150" y="120" width="28" height="28" fill="#0f4a58" /><rect x="180" y="120" width="28" height="28" fill="#12616f" /><rect x="210" y="120" width="28" height="28" fill="#0f4a58" /><rect x="240" y="120" width="28" height="28" fill="#12616f" /><rect x="270" y="120" width="28" height="28" fill="#0f4a58" /><rect x="300" y="120" width="28" height="28" fill="#12616f" /><rect x="330" y="120" width="28" height="28" fill="#0f4a58" /><rect x="360" y="120" width="28" height="28" fill="#12616f" /><rect x="390" y="120" width="28" height="28" fill="#0f4a58" /><rect x="0" y="150" width="28" height="28" fill="#0f4a58" /><rect x="30" y="150" width="28" height="28" fill="#12616f" /><rect x="60" y="150" width="28" height="28" fill="#0f4a58" /><rect x="90" y="150" width="28" height="28" fill="#12616f" /><rect x="120" y="150" width="28" height="28" fill="#0f4a58" /><rect x="150" y="150" width="28" height="28" fill="#12616f" /><rect x="180" y="150" width="28" height="28" fill="#0f4a58" /><rect x="210" y="150" width="28" height="28" fill="#12616f" /><rect x="240" y="150" width="28" height="28" fill="#0f4a58" /><rect x="270" y="150" width="28" height="28" fill="#12616f" /><rect x="300" y="150" width="28" height="28" fill="#0f4a58" /><rect x="330" y="150" width="28" height="28" fill="#12616f" /><rect x="360" y="150" width="28" height="28" fill="#0f4a58" /><rect x="390" y="150" width="28" height="28" fill="#12616f" /><rect x="0" y="180" width="28" height="28" fill="#12616f" /><rect x="30" y="180" width="28" height="28" fill="#0f4a58" /><rect x="60" y="180" width="28" height="28" fill="#12616f" /><rect x="90" y="180" width="28" height="28" fill="#0f4a58" /><rect x="120" y="180" width="28" height="28" fill="#12616f" /><rect x="150" y="180" width="28" height="28" fill="#0f4a58" /><rect x="180" y="180" width="28" height="28" fill="#12616f" /><rect x="210" y="180" width="28" height="28" fill="#0f4a58" /><rect x="240" y="180" width="28" height="28" fill="#12616f" /><rect x="270" y="180" width="28" height="28" fill="#0f4a58" /><rect x="300" y="180" width="28" height="28" fill="#12616f" /><rect x="330" y="180" width="28" height="28" fill="#0f4a58" /><rect x="360" y="180" width="28" height="28" fill="#12616f" /><rect x="390" y="180" width="28" height="28" fill="#0f4a58" /><rect x="0" y="210" width="28" height="28" fill="#0f4a58" /><rect x="30" y="210" width="28" height="28" fill="#12616f" /><rect x="60" y="210" width="28" height="28" fill="#0f4a58" /><rect x="90" y="210" width="28" height="28" fill="#12616f" /><rect x="120" y="210" width="28" height="28" fill="#0f4a58" /><rect x="150" y="210" width="28" height="28" fill="#12616f" /><rect x="180" y="210" width="28" height="28" fill="#0f4a58" /><rect x="210" y="210" width="28" height="28" fill="#12616f" /><rect x="240" y="210" width="28" height="28" fill="#0f4a58" /><rect x="270" y="210" width="28" height="28" fill="#12616f" /><rect x="300" y="210" width="28" height="28" fill="#0f4a58" /><rect x="330" y="210" width="28" height="28" fill="#12616f" /><rect x="360" y="210" width="28" height="28" fill="#0f4a58" /><rect x="390" y="210" width="28" height="28" fill="#12616f" /><rect x="110" y="60" width="180" height="120" fill="#c0c0c0" /><rect x="114" y="64" width="172" height="14" fill="#000080" /><rect x="114" y="82" width="172" height="94" fill="#fff" /><rect x="124" y="96" width="80" height="6" fill="#000" /><rect x="124" y="110" width="120" height="6" fill="#000" /><rect x="124" y="124" width="60" height="6" fill="#000" /><rect x="240" y="150" width="36" height="18" fill="#c0c0c0" /></svg>