<svg xmlns="http://www.w3.org/2000/svg" viewBox="0 0 32 32" shape-rendering="crispEdges"><defs><linearGradient id="g" x1="0" y1="0" x2="0" y2="1"><stop offset="0" stop-color="#ffffff"/><stop offset="1" stop-color="#cfe4fb"/></linearGradient></defs><rect x="1" y="1" width="30" height="30" rx="6" fill="url(#g)" stroke="#5a86bd" stroke-width="2"/><rect x="4" y="5" width="4" height="4" fill="#1b6ad0" /><rect x="8" y="5" width="4" height="4" fill="#1b6ad0" /><rect x="12" y="5" width="4" height="4" fill="#1b6ad0" /><rect x="4" y="9" width="4" height="4" fill="#1b6ad0" /><rect x="16" y="9" width="4" height="4" fill="#1b6ad0" /><rect x="4" y="13" width="4" height="4" fill="#1b6ad0" /><rect x="8" y="13" width="4" height="4" fill="#1b6ad0" /><rect x="12" y="13" width="4" height="4" fill="#1b6ad0" /><rect x="4" y="17" width="4" height="4" fill="#1b6ad0" /><rect x="16" y="17" width="4" height="4" fill="#1b6ad0" /><rect x="4" y="21" width="4" height="4" fill="#1b6ad0" /><rect x="16" y="21" width="4" height="4" fill="#1b6ad0" /><rect x="4" y="25" width="4" height="4" fill="#1b6ad0" /><rect x="8" y="25" width="4" height="4" fill="#1b6ad0" /><rect x="12" y="25" width="4" height="4" fill="#1b6ad0" /><rect x="23" y="24" width="5" height="4" fill="#2bb3e8" /></svg>