<svg xmlns="http://www.w3.org/2000/svg" viewBox="0 0 72 48" shape-rendering="crispEdges"><defs><linearGradient id="g" x1="0" y1="0" x2="0" y2="1"><stop offset="0" stop-color="#ffffff"/><stop offset="1" stop-color="#cfe4fb"/></linearGradient></defs><rect x="1" y="1" width="70" height="46" rx="6" fill="url(#g)" stroke="#5a86bd" stroke-width="2"/><rect x="7" y="12" width="4" height="4" fill="#1b6ad0" /><rect x="11" y="12" width="4" height="4" fill="#1b6ad0" /><rect x="15" y="12" width="4" height="4" fill="#1b6ad0" /><rect x="7" y="16" width="4" height="4" fill="#1b6ad0" /><rect x="19" y="16" width="4" height="4" fill="#1b6ad0" /><rect x="7" y="20" width="4" height="4" fill="#1b6ad0" /><rect x="11" y="20" width="4" height="4" fill="#1b6ad0" /><rect x="15" y="20" width="4" height="4" fill="#1b6ad0" /><rect x="7" y="24" width="4" height="4" fill="#1b6ad0" /><rect x="19" y="24" width="4" height="4" fill="#1b6ad0" /><rect x="7" y="28" width="4" height="4" fill="#1b6ad0" /><rect x="19" y="28" width="4" height="4" fill="#1b6ad0" /><rect x="7" y="32" width="4" height="4" fill="#1b6ad0" /><rect x="11" y="32" width="4" height="4" fill="#1b6ad0" /><rect x="15" y="32" width="4" height="4" fill="#1b6ad0" /><rect x="27" y="12" width="4" height="4" fill="#1b6ad0" /><rect x="31" y="12" width="4" height="4" fill="#1b6ad0" /><rect x="35" y="12" width="4" height="4" fill="#1b6ad0" /><rect x="31" y="16" width="4" height="4" fill="#1b6ad0" /><rect x="31" y="20" width="4" height="4" fill="#1b6ad0" /><rect x="31" y="24" width="4" height="4" fill="#1b6ad0" /><rect x="31" y="28" width="4" height="4" fill="#1b6ad0" /><rect x="27" y="32" width="4" height="4" fill="#1b6ad0" /><rect x="31" y="32" width="4" height="4" fill="#1b6ad0" /><rect x="35" y="32" width="4" height="4" fill="#1b6ad0" /><rect x="43" y="12" width="4" height="4" fill="#1b6ad0" /><rect x="47" y="12" width="4" height="4" fill="#1b6ad0" /><rect x="51" y="12" width="4" height="4" fill="#1b6ad0" /><rect x="47" y="16" width="4" height="4" fill="#1b6ad0" /><rect x="47" y="20" width="4" height="4" fill="#1b6ad0" /><rect x="47" y="24" width="4" height="4" fill="#1b6ad0" /><rect x="47" y="28" width="4" height="4" fill="#1b6ad0" /><rect x="47" y="32" width="4" height="4" fill="#1b6ad0" /><rect x="54" y="36" width="12" height="4" fill="#2bb3e8" /></svg>